<svg width="195" height="18" viewBox="0 0 195 18" fill="none" xmlns="http://www.w3.org/2000/svg">
<g clip-path="url(#clip0_1_2)">
<path d="M5.22 7.28C6.44 7.24 7.02 6.44 7.02 5.26C7.02 4.26 6.16 3.46 4.94 3.46C3.98 3.46 3.34 3.96 2.82 4.5C2.62 4.7 2.36 4.8 2.12 4.8C1.56 4.8 1 4.28 1 3.68C1 2.56 3.3 1.4 5.04 1.4C7.58 1.4 9.2 3.02 9.2 5.26C9.2 6.62 8.56 7.68 7.58 8.2C9.92 9.28 9.96 11.68 9.96 12.06C9.96 14.88 7.8 16.88 4.78 16.88C1.76 16.88 0 15.12 0 14.18C0 13.54 0.58 12.98 1.18 12.98C1.44 12.98 1.72 13.1 1.96 13.36C2.86 14.36 3.5 14.74 4.88 14.74C6.26 14.74 7.76 13.68 7.76 12.02C7.76 9.98 6.54 9.36 5.12 9.36H4.94C4.82 9.36 4.72 9.38 4.64 9.38C4.02 9.38 3.58 8.84 3.58 8.32C3.58 7.8 4 7.28 4.62 7.28H5.22Z" fill="white"/>
<path d="M33.62 15.08V15.12C33.62 16.5 32.56 17.74 29.96 17.74C28.18 17.74 27.46 17.46 27.46 16.58C27.46 16.1 27.78 15.66 28.36 15.66C28.42 15.66 28.5 15.66 28.58 15.68C29.1 15.76 29.54 15.82 29.92 15.82C31.14 15.82 31.66 15.36 31.66 14.68C31.66 6.18 31.62 4.9 31.58 3.7C31.54 2.94 31.16 2.56 30.42 2.54C29.12 2.5 27.84 2.48 26.56 2.48C25.1 2.48 23.62 2.5 22.12 2.54C21.42 2.56 21.16 2.94 21.16 3.52V3.92C21.16 5.02 21.2 6.32 21.2 7.7C21.2 11 20.96 14.72 19.32 17.12C19 17.58 18.58 17.78 18.2 17.78C17.66 17.78 17.18 17.38 17.18 16.86C17.18 16.68 17.24 16.48 17.38 16.28C19 13.94 19.3 10.64 19.3 7.64C19.3 6.1 19.22 4.66 19.2 3.44V3.38C19.2 1.72 19.98 0.88 21.8 0.84C23.52 0.8 25.1 0.78 26.72 0.78C28.14 0.78 29.56 0.8 31.14 0.84C32.32 0.86 33.5 1.78 33.52 3.16C33.58 6.1 33.54 10.14 33.58 12.34L33.62 15.08ZM30.24 8.88L26.22 8.84L22.38 8.88H22.36C21.82 8.88 21.56 8.5 21.56 8.12C21.56 7.72 21.84 7.3 22.36 7.3H22.38L25.36 7.34L25.34 6.02L22.9 6.04H22.88C22.34 6.04 22.1 5.68 22.1 5.28C22.1 4.88 22.38 4.46 22.88 4.46H22.9L25.34 4.48V3.62C25.34 3.08 25.8 2.8 26.24 2.8C26.68 2.8 27.16 3.08 27.16 3.62V4.48L29.7 4.46H29.72C30.22 4.46 30.46 4.86 30.46 5.24C30.46 5.64 30.22 6.04 29.72 6.04H29.7L27.16 6.02L27.14 7.34L30.24 7.3H30.26C30.76 7.3 31 7.7 31 8.08C31 8.48 30.76 8.88 30.26 8.88H30.24ZM22.4 12.5C22.4 12.22 22.42 11.94 22.42 11.52C22.44 10.8 22.98 10.04 23.98 9.98C24.44 9.96 25.14 9.94 25.88 9.94C26.76 9.94 27.7 9.96 28.3 9.98C29.08 10 29.98 10.58 30.02 11.4C30.04 11.82 30.06 12.1 30.06 12.38C30.06 12.66 30.04 12.94 30.02 13.36C29.98 14.28 29.26 15.06 28.22 15.12C27.68 15.14 26.9 15.16 26.12 15.16C25.34 15.16 24.56 15.14 24.02 15.12C23.08 15.08 22.46 14.28 22.42 13.38C22.42 13 22.4 12.76 22.4 12.5ZM26.16 11.46C25.6 11.46 25.06 11.46 24.76 11.48C24.22 11.52 24.16 11.88 24.16 12.5C24.16 12.62 24.18 12.72 24.18 12.96C24.2 13.48 24.42 13.5 26.34 13.5C28.16 13.5 28.26 13.44 28.26 12.52C28.26 11.8133 27.56 11.46 26.16 11.46Z" fill="white"/>
<path d="M48 13.14V17.14C48 17.68 47.52 17.96 47.02 17.96C46.52 17.96 46.06 17.68 46.06 17.14V13.14H38.5C37.84 13.14 37.54 12.72 37.54 12.28C37.54 11.84 37.88 11.34 38.5 11.34H41.24C41.24 10.68 41.26 9.94 41.3 8.52C41.32 7.62 41.86 6.6 43.5 6.6H46.06V4.3H42.88C42.1 5.5 41.22 6.58 40.44 7.34C40.16 7.6 39.86 7.72 39.6 7.72C39.06 7.72 38.6 7.28 38.6 6.78C38.6 6.54 38.7 6.3 38.94 6.08C40.48 4.64 41.64 2.84 42.56 0.6C42.74 0.18 43.08 0 43.44 0C44 0 44.58 0.42 44.58 0.98C44.58 1.28 44.42 1.62 43.92 2.54H52.76C53.4 2.54 53.72 2.98 53.72 3.42C53.72 3.86 53.4 4.3 52.76 4.3H48V6.6C49.22 6.6 50.46 6.62 51.66 6.62C52.32 6.64 52.66 7.08 52.66 7.52C52.66 7.96 52.34 8.38 51.68 8.38H51.66C50.5 8.36 49.22 8.34 48 8.34V11.34H53.92C54.52 11.34 54.84 11.8 54.84 12.26C54.84 12.72 54.54 13.14 53.92 13.14H48ZM46.06 8.36H44.12C43.44 8.36 43.26 8.7 43.24 9.12C43.22 9.74 43.2 10.6 43.18 11.34H46.06V8.36Z" fill="white"/>
<path d="M58.3 5.12C57.66 5.12 57.38 4.72 57.38 4.32C57.38 3.88 57.7 3.44 58.3 3.44H64.72C65.32 3.44 65.6 3.86 65.6 4.28C65.6 4.7 65.32 5.12 64.72 5.12H58.3ZM62.98 17.36C62.4 17.38 61.76 17.4 61.12 17.4C60.58 17.4 60.06 17.38 59.6 17.36C58.7 17.3 58.14 16.66 58.12 15.78C58.12 15.26 58.1 14.74 58.1 14.24C58.1 13.74 58.12 13.26 58.12 12.82C58.14 12.06 58.62 11.34 59.58 11.3C60.14 11.28 60.74 11.26 61.34 11.26C61.94 11.26 62.52 11.28 63.04 11.3C63.8 11.32 64.64 11.86 64.66 12.72C64.68 13.18 64.68 13.72 64.68 14.26C64.68 14.8 64.68 15.32 64.66 15.76C64.64 16.66 63.98 17.32 62.98 17.36ZM59.16 2.38C58.56 2.38 58.28 2 58.28 1.6C58.28 1.18 58.6 0.74 59.16 0.74H63.66C64.22 0.74 64.5 1.14 64.5 1.56C64.5 1.98 64.22 2.38 63.66 2.38H59.16ZM59.2 7.72C58.6 7.72 58.32 7.34 58.32 6.94C58.32 6.54 58.64 6.08 59.2 6.08H63.7C64.26 6.08 64.54 6.48 64.54 6.9C64.54 7.32 64.26 7.72 63.7 7.72H59.2ZM59.2 10.3C58.6 10.3 58.32 9.92 58.32 9.52C58.32 9.1 58.64 8.66 59.2 8.66H63.7C64.26 8.66 64.54 9.06 64.54 9.48C64.54 9.9 64.26 10.3 63.7 10.3H59.2ZM62.96 14.32C62.96 13.96 62.96 13.6 62.94 13.32C62.9 12.82 62.6 12.78 61.34 12.78C61 12.78 60.64 12.78 60.32 12.8C59.76 12.84 59.76 13.2 59.76 14.3C59.76 14.66 59.78 15.02 59.78 15.32C59.8 15.7 60 15.8 61.32 15.8C62.32 15.8 62.9 15.8 62.94 15.3C62.96 15.02 62.96 14.66 62.96 14.32ZM67.06 2.76C66.44 2.76 66.14 2.34 66.14 1.92C66.14 1.5 66.46 1.04 67.08 1.02C67.9 1 68.78 1 69.68 1C70.34 1 71.02 1 71.68 1.02C73.02 1.06 73.82 1.76 73.86 3.2C73.88 3.7 73.88 4.42 73.88 5.08C73.88 6.86 73.86 8.52 71.68 8.52H69.7C68.32 8.52 67.98 8.54 67.94 9.24C67.9 10.12 67.86 11.36 67.86 12.54C67.86 13.28 67.86 14 67.9 14.6C67.94 15.4 68.48 15.58 70.26 15.58C72.04 15.58 72.96 15.3 72.96 13.54C72.96 12.9 73.42 12.62 73.9 12.62C74.14 12.62 74.98 12.7 74.98 13.7C74.98 17.26 72.3 17.42 70.2 17.42C67.82 17.42 66.12 17.14 66.04 14.98C66.02 14.4 66 13.56 66 12.64C66 11.24 66.04 9.66 66.08 8.64C66.12 7.76 66.66 6.78 68.26 6.76C69.02 6.76 69.9 6.78 70.68 6.78C72.02 6.78 72.06 6.74 72.06 4.9C72.06 4.44 72.04 3.96 72 3.42C71.94 2.74 71.6 2.72 70 2.72C69.08 2.72 68.12 2.74 67.08 2.76H67.06Z" fill="white"/>
<path d="M77.5 16C77.5 15.72 77.66 15.4 78.08 15.16C78.58 14.86 79.6 13.8 79.82 13.08C79.96 12.64 80.28 12.44 80.64 12.44C81.1 12.44 81.58 12.8 81.58 13.32C81.58 14.34 79.78 16.9 78.54 16.9C77.96 16.9 77.5 16.48 77.5 16ZM83.7 6.08C83.14 6.08 82.86 5.68 82.86 5.3C82.86 5.2 82.86 5.1 82.9 5.02C81.26 6.4 79.14 7.9 78.42 7.9C77.86 7.9 77.52 7.42 77.52 6.92C77.52 6.58 77.68 6.22 78.1 6.04C80.36 5 82.92 2.78 84.4 1.06C84.88 0.5 85.46 0.22 86.04 0.22C86.62 0.22 87.2 0.48 87.78 1.02C89.68 2.84 92 4.44 94.32 5.5C94.72 5.68 94.88 5.98 94.88 6.3C94.88 6.82 94.44 7.36 93.8 7.36C92.92 7.36 89.7 5.26 86.8 2.36C86.56 2.12 86.38 1.98 86.2 1.98C86.04 1.98 85.86 2.1 85.64 2.36C85.06 3.02 84.32 3.76 83.5 4.5C83.56 4.48 83.62 4.48 83.7 4.48H88.62C89.18 4.48 89.46 4.88 89.46 5.28C89.46 5.68 89.18 6.08 88.62 6.08H83.7ZM81.84 8.8C81.28 8.8 81.02 8.42 81.02 8.04C81.02 7.62 81.32 7.2 81.86 7.18C82.96 7.14 84.7 7.12 86.32 7.12C87.48 7.12 88.58 7.14 89.34 7.16C90.36 7.18 90.96 7.66 90.96 8.42C90.96 9.52 89.6 11.22 88.98 11.82C88.78 12 88.54 12.08 88.3 12.08C87.76 12.08 87.2 11.66 87.2 11.22C87.2 11.06 87.28 10.88 87.44 10.74C88.7 9.6 88.7 9.06 88.7 9.02C88.7 8.86 88.6 8.76 88.34 8.76H87.34C85.7 8.76 83.16 8.78 81.86 8.8H81.84ZM84.4 12.6C84.36 13.3 84.3 14.1 84.3 14.72C84.3 15.92 84.58 16 86.28 16C88.14 16 88.9 15.72 88.9 14.6C88.9 14.02 89.36 13.74 89.84 13.74C90.78 13.74 90.92 14.42 90.92 14.7C90.92 17.64 88 17.7 86.18 17.7C83.92 17.7 82.44 17.54 82.44 15.52V15.46C82.44 14.6 82.48 13.5 82.52 12.56C82.54 12.04 83.02 11.8 83.48 11.8C83.94 11.8 84.4 12.06 84.4 12.56V12.6ZM86.94 14C86.68 14 86.44 13.88 86.28 13.62C85.94 13.08 85.46 12.66 84.96 12.26C84.78 12.12 84.7 11.94 84.7 11.78C84.7 11.36 85.2 10.94 85.7 10.94C86.1 10.94 87.98 12.18 87.98 13C87.98 13.56 87.44 14 86.94 14ZM93.06 15.82C92.5 14.9 91.74 14.1 90.78 13.5C90.54 13.34 90.44 13.14 90.44 12.94C90.44 12.5 90.88 12.06 91.4 12.06C92.12 12.06 94.9 14.12 94.9 15.32C94.9 15.92 94.42 16.36 93.92 16.36C93.6 16.36 93.3 16.2 93.06 15.82Z" fill="white"/>
<path d="M100.44 17.46C99.06 18.2 98.06 16.36 99.36 15.72C101.78 14.52 103.9 12.58 105.64 10.42C104.8 9.9 103.94 9.46 103.24 9.22C102.16 8.84 102.92 7.06 104.32 7.6C105.02 7.86 105.92 8.28 106.84 8.8C107.9 7.24 108.74 5.64 109.36 4.12C110.06 2.44 112.1 3.52 111.46 4.8C110.6 6.52 109.66 8.22 108.56 9.86C109.4 10.44 110.12 11.08 110.56 11.68C111 12.26 110.74 12.92 110.34 13.26C109.94 13.6 109.34 13.64 108.92 13.1C108.56 12.64 107.98 12.1 107.3 11.58C105.52 13.86 103.32 15.88 100.44 17.46Z" fill="white"/>
<path d="M122.7 11.54C122.42 10.98 122 10.38 121.56 10C120.74 9.3 121.9 8.04 122.84 8.88C123.38 9.36 123.94 10 124.32 10.66C124.96 11.74 123.3 12.72 122.7 11.54ZM122.3 16.96C122.12 16.54 122.24 16 122.8 15.76C126.14 14.36 128.3 11.54 129.1 8.2C129.42 6.9 131.36 7.5 130.98 8.72C129.84 12.5 127.62 15.56 123.68 17.34C123 17.64 122.5 17.4 122.3 16.96ZM125.38 10.44C125.18 9.84 124.82 9.2 124.44 8.76C123.72 7.96 125.06 6.86 125.88 7.84C126.34 8.4 126.78 9.12 127.08 9.82C127.56 11 125.8 11.72 125.38 10.44Z" fill="white"/>
<path d="M139.62 11.88C138.24 12.46 137.64 10.56 138.88 10.16C139.28 10.04 141.02 9.32 143.06 8.5C143.1 6.86 143.12 5.2 143.12 4C143.12 2.66 145.16 2.88 145.16 3.92C145.16 4.96 145.1 6.32 145.06 7.68C147.12 6.84 149.14 6.06 150.1 5.72C151.58 5.2 153.1 6.24 152.46 7.58C151.78 9.02 150.64 10.66 149.4 11.78C148.08 12.98 146.78 11.46 147.88 10.44C148.64 9.74 149.4 9.04 149.96 8.16C150.32 7.62 150.06 7.64 149.68 7.76C148.98 7.98 147 8.78 144.98 9.62C144.92 10.84 144.88 11.94 144.84 12.68C144.8 13.66 145.3 14.16 146.5 14.3C147.56 14.42 149.38 14.32 150.8 13.88C152.58 13.32 153.46 15.52 151.2 16.04C149.38 16.46 147.62 16.46 145.76 16.24C144 16.02 142.9 14.94 142.94 13.3C142.96 12.6 142.98 11.6 143 10.46C141.34 11.16 139.96 11.74 139.62 11.88Z" fill="white"/>
<path d="M159.96 9.92C159.24 9.92 158.9 9.44 158.9 8.96C158.9 8.48 159.28 7.94 159.96 7.94H172.52C173.2 7.94 173.54 8.44 173.54 8.94C173.54 9.44 173.2 9.92 172.52 9.92H159.96Z" fill="white"/>
<path d="M182.4 10.58C181.66 10.1 180.74 9.7 179.92 9.56C178.72 9.36 179.1 7.46 180.56 7.74C181.5 7.92 182.58 8.24 183.48 8.74C184.12 9.08 184.2 9.78 183.94 10.24C183.68 10.72 183.06 11 182.4 10.58ZM182.4 16.86C180.82 17.38 180.16 15.22 181.74 14.8C185.72 13.72 190.16 9.32 192.26 5.34C192.92 4.1 194.92 4.92 194.04 6.5C191.48 11.08 186.94 15.36 182.4 16.86ZM184.72 7.02C184.1 6.38 183.3 5.8 182.54 5.48C181.4 5.02 182.2 3.24 183.56 3.84C184.44 4.24 185.46 4.82 186.22 5.5C186.76 5.98 186.68 6.66 186.32 7.06C185.96 7.46 185.26 7.58 184.72 7.02ZM189.06 3.38C188.04 2.96 188.84 1.76 189.76 2.1C190.3 2.3 191.3 2.82 191.74 3.3C192.52 4.14 191.36 5.36 190.7 4.58C190.44 4.26 189.46 3.56 189.06 3.38ZM190.88 1.68C189.86 1.28 190.58 0.06 191.52 0.36C192.06 0.54 193.08 1.04 193.54 1.5C194.34 2.3 193.22 3.56 192.54 2.8C192.26 2.5 191.28 1.84 190.88 1.68Z" fill="white"/>
</g>
<defs>
<clipPath id="clip0_1_2">
<rect width="194.26" height="17.96" fill="white"/>
</clipPath>
</defs>
</svg>
