<svg width="187" height="18" viewBox="0 0 187 18" fill="none" xmlns="http://www.w3.org/2000/svg">
<g clip-path="url(#clip0_4_14)">
<path d="M5.01 6.98C6.18 6.94 6.74 6.17 6.74 5.04C6.74 4.08 5.92 3.31 4.75 3.31C3.83 3.31 3.22 3.79 2.72 4.31C2.53 4.5 2.28 4.6 2.05 4.6C1.51 4.6 0.98 4.1 0.98 3.53C0.98 2.46 3.19 1.34 4.85 1.34C7.29 1.34 8.84 2.89 8.84 5.04C8.84 6.34 8.23 7.36 7.29 7.86C9.53 8.9 9.57 11.2 9.57 11.56C9.57 14.26 7.5 16.18 4.6 16.18C1.7 16.18 0 14.5 0 13.6C0 12.99 0.56 12.45 1.13 12.45C1.38 12.45 1.65 12.57 1.88 12.81C2.74 13.77 3.36 14.13 4.68 14.13C6 14.13 7.44 13.11 7.44 11.52C7.44 9.56 6.27 8.97 4.91 8.97H4.74C4.62 8.97 4.53 8.99 4.45 8.99C3.86 8.99 3.43 8.47 3.43 7.97C3.43 7.47 3.83 6.97 4.43 6.97H5.01V6.98Z" fill="white"/>
<path d="M32.24 14.46V14.5C32.24 15.82 31.22 17.01 28.73 17.01C27.02 17.01 26.33 16.74 26.33 15.9C26.33 15.44 26.64 15.02 27.19 15.02C27.25 15.02 27.32 15.02 27.4 15.04C27.9 15.12 28.32 15.17 28.69 15.17C29.86 15.17 30.36 14.73 30.36 14.08C30.36 5.93 30.32 4.7 30.28 3.55C30.24 2.82 29.88 2.46 29.17 2.44C27.92 2.4 26.7 2.38 25.47 2.38C24.07 2.38 22.65 2.4 21.21 2.44C20.54 2.46 20.29 2.82 20.29 3.38V3.76C20.29 4.81 20.33 6.06 20.33 7.39C20.33 10.55 20.1 14.12 18.53 16.42C18.22 16.86 17.82 17.05 17.46 17.05C16.94 17.05 16.48 16.67 16.48 16.17C16.48 16 16.54 15.81 16.67 15.61C18.22 13.37 18.51 10.2 18.51 7.32C18.51 5.84 18.43 4.46 18.41 3.29V3.23C18.41 1.64 19.16 0.83 20.9 0.79C22.55 0.75 24.06 0.73 25.62 0.73C26.98 0.73 28.34 0.75 29.86 0.79C30.99 0.81 32.12 1.69 32.14 3.01C32.2 5.83 32.16 9.7 32.2 11.81L32.24 14.44V14.46ZM29 8.52L25.14 8.48L21.46 8.52H21.44C20.92 8.52 20.67 8.16 20.67 7.79C20.67 7.41 20.94 7 21.44 7H21.46L24.32 7.04L24.3 5.77L21.96 5.79H21.94C21.42 5.79 21.19 5.44 21.19 5.06C21.19 4.68 21.46 4.27 21.94 4.27H21.96L24.3 4.29V3.47C24.3 2.95 24.74 2.68 25.16 2.68C25.58 2.68 26.04 2.95 26.04 3.47V4.29L28.48 4.27H28.5C28.98 4.27 29.21 4.65 29.21 5.02C29.21 5.4 28.98 5.79 28.5 5.79H28.48L26.04 5.77L26.02 7.04L28.99 7H29.01C29.49 7 29.72 7.38 29.72 7.75C29.72 8.13 29.49 8.52 29.01 8.52H28.99H29ZM21.48 11.99C21.48 11.72 21.5 11.45 21.5 11.05C21.52 10.36 22.04 9.63 23 9.57C23.44 9.55 24.11 9.53 24.82 9.53C25.66 9.53 26.57 9.55 27.14 9.57C27.89 9.59 28.75 10.15 28.79 10.93C28.81 11.33 28.83 11.6 28.83 11.87C28.83 12.14 28.81 12.41 28.79 12.81C28.75 13.69 28.06 14.44 27.06 14.5C26.54 14.52 25.79 14.54 25.05 14.54C24.31 14.54 23.55 14.52 23.04 14.5C22.14 14.46 21.54 13.69 21.51 12.83C21.51 12.47 21.49 12.24 21.49 11.99H21.48ZM25.09 10.99C24.55 10.99 24.04 10.99 23.75 11.01C23.23 11.05 23.17 11.39 23.17 11.99C23.17 12.11 23.19 12.2 23.19 12.43C23.21 12.93 23.42 12.95 25.26 12.95C27.01 12.95 27.1 12.89 27.1 12.01C27.1 11.33 26.43 10.99 25.09 10.99Z" fill="white"/>
<path d="M46.03 12.6V16.44C46.03 16.96 45.57 17.23 45.09 17.23C44.61 17.23 44.17 16.96 44.17 16.44V12.6H36.92C36.29 12.6 36 12.2 36 11.78C36 11.36 36.33 10.88 36.92 10.88H39.55C39.55 10.25 39.57 9.54 39.61 8.18C39.63 7.32 40.15 6.34 41.72 6.34H44.18V4.13H41.13C40.38 5.28 39.54 6.32 38.79 7.05C38.52 7.3 38.23 7.41 37.98 7.41C37.46 7.41 37.02 6.99 37.02 6.51C37.02 6.28 37.12 6.05 37.35 5.84C38.83 4.46 39.94 2.73 40.82 0.58C40.99 0.18 41.32 0 41.66 0C42.2 0 42.75 0.4 42.75 0.94C42.75 1.23 42.6 1.55 42.12 2.44H50.6C51.21 2.44 51.52 2.86 51.52 3.28C51.52 3.7 51.21 4.12 50.6 4.12H46.04V6.33C47.21 6.33 48.4 6.35 49.55 6.35C50.18 6.37 50.51 6.79 50.51 7.21C50.51 7.63 50.2 8.03 49.57 8.03H49.55C48.44 8.01 47.21 7.99 46.04 7.99V10.87H51.72C52.3 10.87 52.6 11.31 52.6 11.75C52.6 12.19 52.31 12.59 51.72 12.59H46.04L46.03 12.6ZM44.17 8.02H42.31C41.66 8.02 41.49 8.35 41.47 8.75C41.45 9.34 41.43 10.17 41.41 10.88H44.17V8.02Z" fill="white"/>
<path d="M55.91 4.91C55.3 4.91 55.03 4.53 55.03 4.14C55.03 3.72 55.34 3.3 55.91 3.3H62.07C62.65 3.3 62.91 3.7 62.91 4.11C62.91 4.52 62.64 4.92 62.07 4.92H55.91V4.91ZM60.39 16.65C59.83 16.67 59.22 16.69 58.61 16.69C58.09 16.69 57.59 16.67 57.15 16.65C56.29 16.59 55.75 15.98 55.73 15.13C55.73 14.63 55.71 14.13 55.71 13.65C55.71 13.17 55.73 12.71 55.73 12.29C55.75 11.56 56.21 10.87 57.13 10.83C57.67 10.81 58.24 10.79 58.82 10.79C59.4 10.79 59.95 10.81 60.45 10.83C61.18 10.85 61.98 11.37 62 12.19C62.02 12.63 62.02 13.15 62.02 13.67C62.02 14.19 62.02 14.69 62 15.11C61.98 15.97 61.35 16.61 60.39 16.64V16.65ZM56.73 2.28C56.15 2.28 55.89 1.92 55.89 1.53C55.89 1.13 56.2 0.709999 56.73 0.709999H61.05C61.59 0.709999 61.86 1.09 61.86 1.5C61.86 1.91 61.59 2.29 61.05 2.29H56.73V2.28ZM56.77 7.4C56.19 7.4 55.93 7.04 55.93 6.65C55.93 6.25 56.24 5.83 56.77 5.83H61.09C61.63 5.83 61.9 6.21 61.9 6.62C61.9 7.03 61.63 7.41 61.09 7.41H56.77V7.4ZM56.77 9.88C56.19 9.88 55.93 9.52 55.93 9.13C55.93 8.73 56.24 8.31 56.77 8.31H61.09C61.63 8.31 61.9 8.69 61.9 9.1C61.9 9.51 61.63 9.89 61.09 9.89H56.77V9.88ZM60.37 13.73C60.37 13.38 60.37 13.04 60.35 12.77C60.31 12.29 60.02 12.25 58.82 12.25C58.49 12.25 58.15 12.25 57.84 12.27C57.3 12.31 57.3 12.65 57.3 13.71C57.3 14.06 57.32 14.4 57.32 14.69C57.34 15.05 57.53 15.15 58.8 15.15C59.76 15.15 60.32 15.15 60.35 14.67C60.37 14.4 60.37 14.06 60.37 13.73ZM64.31 2.65C63.72 2.65 63.43 2.25 63.43 1.84C63.43 1.43 63.74 0.999999 64.33 0.979999C65.12 0.959999 65.96 0.959999 66.82 0.959999C67.45 0.959999 68.11 0.959999 68.74 0.979999C70.03 1.02 70.79 1.69 70.83 3.07C70.85 3.55 70.85 4.24 70.85 4.87C70.85 6.58 70.83 8.17 68.74 8.17H66.84C65.52 8.17 65.19 8.19 65.15 8.86C65.11 9.7 65.07 10.89 65.07 12.02C65.07 12.73 65.07 13.42 65.11 14C65.15 14.77 65.67 14.94 67.37 14.94C69.07 14.94 69.96 14.67 69.96 12.98C69.96 12.37 70.4 12.1 70.86 12.1C71.09 12.1 71.9 12.18 71.9 13.14C71.9 16.55 69.33 16.71 67.32 16.71C65.04 16.71 63.41 16.44 63.33 14.37C63.31 13.81 63.29 13.01 63.29 12.13C63.29 10.79 63.33 9.27 63.37 8.29C63.41 7.45 63.93 6.51 65.46 6.49C66.19 6.49 67.03 6.51 67.78 6.51C69.07 6.51 69.1 6.47 69.1 4.71C69.1 4.27 69.08 3.81 69.04 3.29C68.98 2.64 68.66 2.62 67.12 2.62C66.24 2.62 65.32 2.64 64.32 2.66H64.3L64.31 2.65Z" fill="white"/>
<path d="M74.32 15.34C74.32 15.07 74.47 14.76 74.88 14.53C75.36 14.24 76.34 13.23 76.55 12.54C76.68 12.12 76.99 11.93 77.34 11.93C77.78 11.93 78.24 12.28 78.24 12.77C78.24 13.75 76.51 16.2 75.32 16.2C74.76 16.2 74.32 15.8 74.32 15.34ZM80.26 5.83C79.72 5.83 79.45 5.45 79.45 5.08C79.45 4.98 79.45 4.89 79.49 4.81C77.92 6.13 75.88 7.57 75.19 7.57C74.65 7.57 74.33 7.11 74.33 6.63C74.33 6.3 74.48 5.96 74.89 5.79C77.06 4.79 79.51 2.66 80.93 1.01C81.39 0.470001 81.95 0.200001 82.5 0.200001C83.05 0.200001 83.61 0.450001 84.17 0.970001C85.99 2.72 88.22 4.25 90.44 5.27C90.82 5.44 90.98 5.73 90.98 6.04C90.98 6.54 90.56 7.06 89.94 7.06C89.1 7.06 86.01 5.05 83.23 2.26C83 2.03 82.83 1.9 82.65 1.9C82.5 1.9 82.32 2.02 82.11 2.26C81.55 2.89 80.84 3.6 80.06 4.31C80.12 4.29 80.18 4.29 80.25 4.29H84.97C85.51 4.29 85.78 4.67 85.78 5.06C85.78 5.45 85.51 5.83 84.97 5.83H80.25H80.26ZM78.48 8.44C77.94 8.44 77.69 8.08 77.69 7.71C77.69 7.31 77.98 6.9 78.5 6.89C79.55 6.85 81.22 6.83 82.78 6.83C83.89 6.83 84.95 6.85 85.68 6.87C86.66 6.89 87.23 7.35 87.23 8.08C87.23 9.13 85.93 10.77 85.33 11.34C85.14 11.51 84.91 11.59 84.68 11.59C84.16 11.59 83.63 11.19 83.63 10.77C83.63 10.62 83.71 10.44 83.86 10.31C85.07 9.22 85.07 8.7 85.07 8.66C85.07 8.51 84.97 8.41 84.72 8.41H83.76C82.19 8.41 79.75 8.43 78.5 8.45H78.48V8.44ZM80.93 12.08C80.89 12.75 80.83 13.52 80.83 14.11C80.83 15.26 81.1 15.34 82.73 15.34C84.51 15.34 85.24 15.07 85.24 14C85.24 13.44 85.68 13.18 86.14 13.18C87.04 13.18 87.18 13.83 87.18 14.1C87.18 16.92 84.38 16.98 82.63 16.98C80.46 16.98 79.04 16.83 79.04 14.89V14.83C79.04 14.01 79.08 12.95 79.12 12.05C79.14 11.55 79.6 11.32 80.04 11.32C80.48 11.32 80.92 11.57 80.92 12.05V12.09L80.93 12.08ZM83.37 13.43C83.12 13.43 82.89 13.31 82.74 13.07C82.41 12.55 81.95 12.15 81.47 11.77C81.3 11.64 81.22 11.46 81.22 11.31C81.22 10.91 81.7 10.5 82.18 10.5C82.56 10.5 84.37 11.69 84.37 12.48C84.37 13.02 83.85 13.44 83.37 13.44V13.43ZM89.24 15.17C88.7 14.29 87.97 13.52 87.05 12.95C86.82 12.8 86.72 12.6 86.72 12.41C86.72 11.99 87.14 11.57 87.64 11.57C88.33 11.57 91 13.55 91 14.7C91 15.28 90.54 15.7 90.06 15.7C89.75 15.7 89.47 15.55 89.24 15.18V15.17Z" fill="white"/>
<path d="M96.31 16.74C94.99 17.45 94.03 15.69 95.27 15.07C97.59 13.92 99.62 12.06 101.29 9.99C100.48 9.49 99.66 9.07 98.99 8.84C97.95 8.48 98.68 6.77 100.03 7.29C100.7 7.54 101.56 7.94 102.45 8.44C103.47 6.94 104.27 5.41 104.87 3.95C105.54 2.34 107.5 3.37 106.88 4.6C106.06 6.25 105.15 7.88 104.1 9.45C104.91 10.01 105.6 10.62 106.02 11.2C106.44 11.76 106.19 12.39 105.81 12.72C105.43 13.05 104.85 13.08 104.45 12.57C104.1 12.13 103.55 11.61 102.9 11.11C101.19 13.3 99.08 15.23 96.32 16.75L96.31 16.74Z" fill="white"/>
<path d="M117.66 11.07C117.39 10.53 116.99 9.96 116.57 9.59C115.78 8.92 116.9 7.71 117.8 8.52C118.32 8.98 118.85 9.59 119.22 10.23C119.83 11.27 118.24 12.21 117.67 11.07H117.66ZM117.28 16.26C117.11 15.86 117.22 15.34 117.76 15.11C120.96 13.77 123.03 11.06 123.8 7.86C124.11 6.61 125.97 7.19 125.6 8.36C124.51 11.99 122.38 14.92 118.6 16.63C117.95 16.92 117.47 16.69 117.28 16.27V16.26ZM120.23 10.01C120.04 9.43 119.69 8.82 119.33 8.4C118.64 7.63 119.92 6.58 120.71 7.52C121.15 8.06 121.57 8.75 121.86 9.42C122.32 10.55 120.63 11.24 120.23 10.01Z" fill="white"/>
<path d="M133.89 11.39C132.57 11.95 131.99 10.12 133.18 9.74C133.56 9.62 135.23 8.93 137.19 8.15C137.23 6.58 137.25 4.99 137.25 3.83C137.25 2.54 139.21 2.76 139.21 3.75C139.21 4.74 139.15 6.05 139.11 7.36C141.09 6.55 143.02 5.81 143.94 5.48C145.36 4.98 146.82 5.98 146.2 7.26C145.55 8.64 144.45 10.21 143.27 11.29C142 12.44 140.76 10.98 141.81 10C142.54 9.33 143.27 8.66 143.8 7.81C144.15 7.29 143.9 7.31 143.53 7.43C142.86 7.64 140.96 8.41 139.02 9.21C138.96 10.38 138.92 11.43 138.89 12.14C138.85 13.08 139.33 13.56 140.48 13.69C141.5 13.81 143.24 13.71 144.6 13.29C146.31 12.75 147.15 14.86 144.98 15.36C143.23 15.76 141.55 15.76 139.76 15.55C138.07 15.34 137.02 14.3 137.06 12.73C137.08 12.06 137.1 11.1 137.12 10.01C135.53 10.68 134.2 11.24 133.88 11.37L133.89 11.39Z" fill="white"/>
<path d="M153.39 9.51C152.7 9.51 152.37 9.05 152.37 8.59C152.37 8.13 152.73 7.61 153.39 7.61H165.44C166.09 7.61 166.42 8.09 166.42 8.57C166.42 9.05 166.09 9.51 165.44 9.51H153.39Z" fill="white"/>
<path d="M174.91 10.15C174.2 9.69 173.32 9.31 172.53 9.17C171.38 8.98 171.74 7.16 173.14 7.42C174.04 7.59 175.08 7.9 175.94 8.38C176.55 8.71 176.63 9.38 176.38 9.82C176.13 10.28 175.54 10.55 174.9 10.15H174.91ZM174.91 16.17C173.39 16.67 172.76 14.6 174.28 14.19C178.1 13.15 182.36 8.93 184.37 5.12C185 3.93 186.92 4.72 186.08 6.23C183.62 10.62 179.27 14.73 174.92 16.17H174.91ZM177.13 6.73C176.54 6.12 175.77 5.56 175.04 5.25C173.95 4.81 174.71 3.1 176.02 3.68C176.86 4.06 177.84 4.62 178.57 5.27C179.09 5.73 179.01 6.38 178.67 6.77C178.32 7.15 177.65 7.27 177.14 6.73H177.13ZM181.3 3.24C180.32 2.84 181.09 1.69 181.97 2.01C182.49 2.2 183.45 2.7 183.87 3.16C184.62 3.97 183.51 5.14 182.87 4.39C182.62 4.08 181.68 3.41 181.3 3.24ZM183.04 1.61C182.06 1.23 182.75 0.0599993 183.65 0.339999C184.17 0.509999 185.15 0.989999 185.59 1.43C186.36 2.2 185.28 3.41 184.63 2.68C184.36 2.39 183.42 1.76 183.04 1.61Z" fill="white"/>
</g>
<defs>
<clipPath id="clip0_4_14">
<rect width="186.28" height="17.22" fill="white"/>
</clipPath>
</defs>
</svg>
